<?xml version="1.0" standalone="no"?>
<!DOCTYPE svg PUBLIC "-//W3C//DTD SVG 20010904//EN"
 "http://www.w3.org/TR/2001/REC-SVG-20010904/DTD/svg10.dtd">
<svg version="1.0" xmlns="http://www.w3.org/2000/svg"
 width="934.000000pt" height="934.000000pt" viewBox="0 0 934.000000 934.000000"
 preserveAspectRatio="xMidYMid meet">
<metadata>
Created by potrace 1.11, written by Peter Selinger 2001-2013
</metadata>
<g transform="translate(0.000000,934.000000) scale(0.100000,-0.100000)"
fill="#000000" stroke="none">
<path d="M4575 9327 c-188 -63 -305 -219 -305 -408 0 -78 26 -169 63 -224 23
-34 25 -42 13 -60 -36 -56 -480 -769 -708 -1140 -143 -231 -267 -430 -275
-443 -8 -13 -34 -35 -57 -50 -40 -25 -59 -29 -242 -46 -419 -38 -863 -90
-1377 -163 l-327 -46 -59 65 c-124 135 -289 162 -468 77 -73 -35 -163 -118
-205 -190 -76 -129 -88 -276 -34 -394 79 -173 260 -248 461 -190 17 5 32 -15
102 -142 46 -81 96 -171 113 -200 l29 -51 -43 -26 c-94 -55 -145 -143 -153
-266 -15 -210 103 -387 339 -509 l74 -38 -54 -28 c-131 -69 -203 -178 -210
-320 -11 -222 113 -412 345 -527 l82 -41 -101 -201 c-55 -110 -194 -390 -308
-622 l-207 -421 -77 -5 c-274 -18 -494 -338 -406 -592 26 -76 72 -139 134
-180 125 -85 275 -86 428 -4 67 36 161 131 198 200 23 45 27 47 75 53 65 7
482 33 655 40 74 3 156 8 182 11 l47 5 12 -43 c38 -142 158 -255 309 -290 46
-11 288 -2 730 27 73 5 77 4 155 -37 l80 -43 193 -300 c106 -165 278 -433 382
-596 l189 -297 -37 -72 c-36 -71 -37 -75 -37 -184 0 -99 3 -117 26 -166 118
-248 419 -326 636 -166 107 78 164 194 164 330 0 86 -13 135 -57 216 l-27 49
53 83 c240 375 754 1175 761 1182 10 11 466 -12 491 -25 10 -5 18 -19 18 -30
0 -41 54 -112 100 -132 21 -8 22 -11 8 -14 -10 -3 -18 -11 -18 -20 0 -17 31
-73 41 -73 4 0 4 -20 1 -45 -4 -36 -1 -46 12 -51 10 -4 22 -2 28 4 8 8 19 2
41 -23 16 -19 36 -35 43 -35 8 0 14 -6 14 -14 0 -7 18 -25 41 -40 33 -22 38
-30 29 -41 -10 -12 0 -26 47 -73 179 -180 362 -276 548 -289 197 -13 403 93
473 245 21 46 27 76 30 154 5 112 -15 196 -75 310 -43 83 -170 208 -246 244
-60 28 -141 33 -151 9 -6 -17 19 -45 42 -45 56 0 194 -116 261 -219 57 -89 76
-150 76 -251 0 -139 -50 -217 -180 -281 -138 -67 -299 -47 -465 59 -75 48
-309 259 -318 287 -10 30 -27 55 -37 55 -6 0 -17 12 -24 28 -8 15 -17 34 -22
42 -65 114 -82 141 -90 146 -10 6 -19 25 -33 69 -6 19 -2 20 87 17 145 -5 250
38 341 138 38 43 86 131 86 161 0 40 10 40 590 4 377 -23 352 -19 381 -73 13
-26 50 -74 81 -108 222 -237 583 -188 677 93 84 252 -119 559 -391 591 -37 5
-70 11 -73 13 -2 3 -58 115 -123 250 -66 134 -266 537 -445 896 l-326 652 210
378 c555 996 663 1189 669 1196 4 4 36 3 71 -2 313 -50 525 255 384 551 -71
147 -199 249 -352 278 -132 26 -251 -16 -345 -120 l-57 -62 -323 46 c-505 71
-939 122 -1376 163 -163 15 -192 20 -188 33 2 8 19 56 37 105 23 63 32 109 33
154 1 92 -5 93 -155 47 -78 -25 -127 -36 -136 -30 -7 5 -138 212 -291 459
-232 375 -507 817 -561 900 -12 18 -9 27 18 70 81 128 84 307 8 438 -37 63
-118 134 -195 170 -55 26 -81 32 -152 34 -52 2 -101 -2 -125 -10z m165 -67
c20 -6 15 -8 -25 -9 -27 -1 -60 -4 -73 -7 l-23 -7 22 -24 c55 -57 11 -143 -72
-143 -26 0 -50 -8 -66 -20 -32 -25 -44 -25 -77 1 l-26 21 -15 -36 c-8 -19 -15
-41 -15 -48 0 -7 -5 -20 -11 -28 -20 -28 -1 86 21 130 27 53 85 117 124 137
74 39 174 53 236 33z m-1129 -2013 c-65 -122 -83 -147 -112 -147 -5 0 7 24 26
53 18 28 60 93 91 144 32 51 60 90 62 88 2 -2 -28 -64 -67 -138z m-441 -375
c0 -5 -6 -15 -12 -24 -10 -12 -63 -19 -253 -32 -132 -10 -355 -28 -495 -42
-574 -54 -330 -12 440 76 270 30 320 34 320 22z m3359 -155 c-248 -238 -286
-266 -302 -223 -3 7 78 92 180 190 l185 178 21 -21 22 -22 -106 -102z m-5510
107 c2 -2 -19 -6 -47 -10 -72 -9 -79 -16 -53 -50 38 -48 2 -117 -68 -130 -20
-4 -47 -15 -60 -25 -26 -20 -76 -25 -86 -9 -11 18 -24 0 -41 -58 -21 -69 -30
-54 -14 23 27 131 151 246 290 268 23 3 70 -2 79 -9z m7417 -7 c28 -15 27 -15
-39 -10 -46 4 -67 2 -67 -6 0 -6 4 -11 9 -11 14 0 33 -57 26 -80 -10 -32 -50
-53 -90 -47 -23 4 -38 1 -46 -9 -17 -21 -59 -17 -86 8 l-23 21 -15 -39 c-9
-21 -20 -48 -25 -59 -9 -20 -9 -20 -9 1 -1 11 6 44 15 73 23 79 89 144 174
172 37 12 142 4 176 -14z m-2825 -265 c-34 -63 -230 -211 -376 -285 -70 -34
-206 -87 -227 -87 -6 0 10 23 36 50 51 55 85 119 86 163 0 15 -2 27 -4 27 -2
0 -41 -20 -87 -44 -160 -84 -391 -147 -649 -177 -155 -17 -454 -4 -588 26 -20
5 -15 10 37 36 34 17 61 34 61 39 0 9 -197 -57 -213 -71 -12 -9 112 -37 253
-56 66 -9 122 -22 132 -30 14 -12 17 -13 25 0 6 11 45 15 175 20 l166 6 7 -37
c16 -86 99 -160 189 -169 43 -4 60 0 106 24 44 23 60 39 83 83 24 45 28 64 24
105 -2 28 -7 57 -11 65 -5 11 7 20 46 34 29 10 86 33 127 52 41 19 75 33 77
31 11 -10 -43 -84 -109 -150 l-79 -78 39 6 c150 26 261 59 380 111 8 4 9 -5 2
-33 -12 -55 -11 -93 6 -151 29 -96 97 -144 127 -88 7 13 20 36 29 52 17 30 23
71 20 134 l-2 35 -15 -27 c-32 -60 -87 -16 -82 65 2 38 7 47 25 52 50 12 77
-18 98 -109 8 -39 -12 -129 -36 -160 -17 -21 -18 -26 -5 -26 8 0 22 12 30 28
l15 27 1 -27 c0 -20 5 -28 18 -28 17 0 20 13 25 137 4 75 7 169 7 209 0 57 4
75 16 82 11 6 13 11 5 16 -6 4 -11 13 -11 19 0 13 76 120 89 125 3 1 18 -17
32 -41 l26 -44 177 -13 c97 -7 176 -16 176 -20 0 -4 -37 -43 -82 -85 -51 -47
-85 -88 -88 -104 -3 -14 -12 -26 -20 -27 -8 -1 -20 -2 -27 -2 -6 -1 -20 -28
-31 -59 -11 -32 -23 -65 -26 -74 -5 -11 2 -19 21 -28 26 -12 30 -11 59 25 18
21 36 34 43 30 18 -12 13 -34 -11 -47 -13 -6 -33 -24 -46 -40 -13 -16 -30 -29
-38 -29 -33 0 -92 -32 -98 -54 -4 -16 -28 -31 -95 -60 -58 -25 -98 -49 -112
-67 -12 -16 -30 -29 -40 -29 -25 0 -24 5 6 44 30 40 31 46 4 46 -11 0 -40 -19
-63 -42 -133 -133 -328 -157 -776 -93 -58 8 -214 26 -347 39 -180 19 -255 30
-288 45 -25 11 -45 22 -45 26 0 3 11 10 24 15 18 7 23 14 19 30 -4 15 -10 19
-22 14 -31 -14 -149 -16 -187 -4 -47 16 -119 82 -146 133 -26 52 -34 134 -18
183 32 98 118 174 195 174 72 0 105 -10 105 -32 0 -11 5 -18 13 -16 10 4 19
23 32 65 0 1 122 9 270 18 149 8 362 22 474 31 112 8 261 19 330 24 121 9 405
43 494 59 50 9 52 8 38 -17z m555 -79 c-10 -10 -19 5 -10 18 6 11 8 11 12 0 2
-7 1 -15 -2 -18z m-2810 -28 c43 -9 127 -15 223 -15 l153 0 -37 -41 c-21 -23
-49 -66 -62 -96 -22 -48 -25 -65 -21 -132 3 -44 13 -92 23 -114 16 -32 17 -44
7 -85 -6 -26 -14 -63 -18 -82 -10 -52 -105 -143 -166 -158 -65 -17 -93 -15
-138 8 -22 11 -44 20 -50 20 -14 0 -12 -45 4 -107 16 -61 32 -86 77 -119 l33
-24 -52 0 c-46 0 -52 -2 -52 -20 0 -82 159 -183 333 -212 62 -10 92 -28 47
-28 -35 0 -22 -19 18 -25 20 -3 61 -12 91 -18 l55 -13 23 -74 c18 -57 21 -79
13 -93 -19 -32 -1 -100 41 -156 34 -44 38 -55 28 -73 -6 -11 -9 -40 -6 -64 4
-37 17 -56 95 -143 65 -72 89 -106 85 -120 -4 -16 5 -21 62 -34 37 -9 69 -17
71 -20 2 -2 -1 -18 -7 -36 -6 -18 -9 -49 -5 -69 5 -33 1 -42 -32 -77 -24 -26
-53 -80 -84 -154 l-48 -115 21 -22 c23 -25 19 -64 -7 -64 -9 0 -49 -12 -90
-26 -42 -14 -82 -23 -90 -20 -19 7 -95 126 -88 137 3 5 17 9 32 9 69 1 166 68
208 142 26 48 29 62 29 148 0 85 -3 102 -31 160 -59 124 -183 230 -392 334
-104 52 -286 103 -467 132 -89 14 -179 18 -464 18 l-354 1 -80 145 c-44 80
-214 387 -379 684 -164 296 -297 540 -296 541 2 1 91 14 198 29 545 74 1418
169 1461 159 9 -2 47 -10 85 -18z m3306 -35 c299 -32 1056 -127 1066 -135 1
-1 -141 -260 -316 -576 -175 -316 -383 -692 -463 -836 l-144 -263 -198 0
c-165 0 -205 3 -234 17 -27 12 -42 14 -67 7 -35 -12 -217 -11 -258 0 -15 5
-33 4 -40 0 -7 -5 -37 -9 -66 -9 -42 0 -57 -4 -68 -20 -19 -25 -14 -37 22 -54
16 -8 32 -19 36 -24 3 -6 -7 -46 -23 -90 -52 -141 -202 -497 -210 -497 -4 0
-10 12 -13 26 -5 20 -2 30 14 41 34 24 22 55 -28 73 -49 17 -70 43 -53 64 8
10 8 16 -2 25 -8 6 -16 8 -19 5 -3 -3 -11 9 -16 26 -9 24 -8 29 1 23 14 -9 69
-5 80 6 4 4 10 47 13 94 5 83 4 87 -15 87 -15 0 -21 6 -21 21 0 18 3 19 15 9
22 -18 48 -4 42 21 -3 12 2 33 10 46 12 18 14 29 6 42 -7 12 -6 22 5 39 11 18
12 25 2 37 -10 12 -39 15 -142 14 -72 0 -132 2 -134 4 -2 2 37 50 86 108 l90
104 -46 43 c-25 23 -50 42 -54 42 -5 0 -50 -47 -101 -105 -50 -58 -94 -103
-97 -100 -3 3 -7 18 -8 33 -2 34 -37 160 -64 230 -17 45 -20 76 -20 232 l0
180 83 1 c94 0 173 24 171 52 -1 10 11 20 32 27 34 12 94 63 94 81 0 6 -18 -4
-39 -21 -49 -40 -112 -51 -141 -25 -29 26 -53 118 -46 169 9 61 40 106 72 106
14 0 34 -4 44 -10 15 -8 20 -6 25 10 8 27 57 61 125 89 30 13 61 25 68 28 8 4
12 -8 12 -39 0 -61 21 -127 59 -181 l31 -46 -36 -29 c-37 -31 -93 -52 -140
-52 -26 -1 -27 -2 -10 -11 30 -18 94 -3 153 36 47 32 59 35 77 26 28 -15 96 8
149 51 34 27 44 30 88 26 48 -5 51 -4 119 53 47 40 75 57 90 54 40 -8 120 87
120 143 0 10 -10 33 -22 50 -73 100 -89 127 -109 182 l-22 61 31 32 c18 18 32
42 32 54 0 25 87 113 112 113 9 0 104 -9 210 -20z m-472 -8 c0 -4 -20 -28 -45
-52 -40 -39 -43 -45 -30 -60 13 -15 12 -19 -9 -39 l-25 -23 -30 22 c-17 12
-31 27 -31 34 0 19 45 57 61 51 9 -3 31 11 54 35 38 39 55 49 55 32z m-656
-49 c-3 -27 -8 -50 -10 -52 -2 -2 -16 8 -33 21 l-29 25 26 27 c41 41 54 35 46
-21z m496 -133 c41 -38 73 -70 70 -71 -3 0 -12 -2 -20 -4 -8 -2 -25 -6 -37 -9
-12 -2 -31 -9 -42 -15 -28 -16 -33 -14 -21 8 18 35 12 83 -16 112 -14 15 -23
32 -20 38 4 6 8 11 9 11 1 0 36 -32 77 -70z m-1364 -47 c-30 -26 -53 -29 -91
-11 -38 17 -31 25 33 38 31 6 62 13 67 14 22 6 16 -19 -9 -41z m1292 30 c2 -9
-8 -13 -30 -13 -27 0 -38 -6 -48 -25 -19 -35 -24 -23 -9 20 12 33 16 36 48 33
19 -2 36 -9 39 -15z m-1138 -66 c0 -22 -28 -85 -42 -93 -5 -4 -2 8 7 26 11 21
16 49 13 77 -3 37 -1 41 9 26 7 -9 13 -25 13 -36z m-310 3 c0 -48 20 -92 52
-114 12 -9 18 -16 12 -16 -22 0 -67 44 -85 84 -25 55 -25 86 1 86 17 0 20 -7
20 -40z m1738 14 c12 -8 22 -24 22 -36 0 -30 -58 -98 -84 -98 -55 0 -62 59
-12 113 38 42 43 43 74 21z m-911 -56 c-2 -13 -4 -3 -4 22 0 25 2 35 4 23 2
-13 2 -33 0 -45z m2435 10 c-17 -29 -69 -125 -118 -213 -48 -88 -187 -342
-309 -565 -122 -223 -257 -455 -299 -517 -79 -115 -120 -161 -74 -82 14 24
171 303 348 619 178 316 346 611 373 655 91 146 97 155 103 155 3 0 -8 -24
-24 -52z m-3022 -43 c0 -19 -25 -36 -44 -29 -21 8 -21 40 1 53 20 10 43 -3 43
-24z m648 -10 c-2 -14 -7 -26 -13 -26 -5 0 -11 12 -13 26 -2 18 1 25 13 25 12
0 15 -7 13 -25z m635 -7 c37 -14 46 -53 19 -81 -19 -19 -24 -19 -64 -8 -56 17
-68 28 -68 62 0 48 38 57 113 27z m269 -25 c25 -23 23 -39 -13 -84 -35 -45
-80 -54 -99 -20 -13 25 -4 48 33 89 35 36 52 40 79 15z m-2462 -142 c28 -6 58
-11 66 -11 9 0 34 -13 57 -28 69 -46 93 -52 251 -67 83 -8 178 -18 211 -22
l60 -6 -46 -21 c-25 -12 -63 -36 -85 -53 -29 -22 -44 -29 -55 -22 -38 24 -165
1 -267 -48 -58 -28 -133 -116 -115 -134 7 -7 3 -19 -12 -35 -13 -13 -28 -45
-34 -69 -14 -55 -28 -60 -161 -60 -65 0 -114 6 -155 19 -108 34 -215 96 -215
125 0 4 25 11 55 14 50 5 135 41 135 58 0 3 -27 9 -60 11 -81 6 -139 50 -155
119 l-7 27 66 -5 c71 -6 122 8 187 53 43 30 95 99 104 140 4 16 11 43 16 61
l10 31 49 -33 c27 -18 72 -38 100 -44z m2540 44 c10 -12 10 -21 0 -44 -17 -43
-44 -63 -77 -59 -22 2 -29 9 -31 32 -7 56 76 110 108 71z m-4721 -213 c75 -29
158 -86 181 -125 31 -50 24 -53 -24 -9 -99 91 -253 136 -386 112 -84 -15 -129
-39 -178 -95 -54 -62 -65 -100 -60 -199 6 -96 30 -157 86 -218 22 -24 39 -47
38 -52 0 -5 6 -10 14 -11 20 -3 140 -87 140 -97 0 -5 4 -7 8 -4 13 8 207 -69
205 -81 -1 -6 14 -9 37 -7 22 2 40 -1 40 -6 0 -6 21 -10 46 -10 80 0 186 -21
180 -36 -5 -14 11 -20 64 -26 14 -2 25 -7 26 -13 0 -5 4 -18 7 -27 15 -40 16
-48 2 -48 -7 0 -16 4 -19 9 -3 5 -21 12 -40 15 -19 4 -39 13 -46 21 -14 17
-56 20 -65 6 -3 -5 3 -12 12 -14 15 -4 15 -5 -2 -6 -11 0 -27 4 -35 9 -8 5
-10 10 -5 10 6 0 11 8 11 18 0 14 -7 17 -27 14 -15 -2 -30 1 -33 7 -4 6 -21
11 -38 11 -30 0 -31 0 -13 -20 21 -23 19 -24 -25 -8 -30 10 -32 12 -14 19 11
5 -11 7 -55 5 -130 -7 -276 -100 -325 -206 -15 -33 -21 -66 -21 -120 0 -129
60 -248 170 -332 39 -31 51 -46 44 -54 -8 -9 -5 -11 9 -7 23 6 192 -54 209
-74 6 -8 13 -10 16 -6 8 13 247 -29 247 -43 0 -13 52 -6 61 8 10 15 39 -3 39
-26 1 -18 2 -19 13 -5 7 8 39 21 71 27 33 7 63 17 66 22 4 6 14 8 23 4 10 -3
17 -1 17 5 0 6 6 11 14 11 19 0 22 55 16 286 l-5 189 -43 20 c-33 16 -39 24
-30 33 14 14 96 16 117 3 9 -6 26 -3 48 7 31 15 35 15 73 -7 l40 -22 65 22
c56 19 78 21 149 15 163 -12 270 -63 322 -152 23 -40 29 -62 32 -134 4 -77 2
-91 -21 -136 -27 -54 -82 -109 -129 -128 l-29 -13 38 -11 c63 -19 135 -81 166
-142 26 -50 28 -62 24 -127 -6 -83 -39 -155 -72 -159 -132 -17 -165 -17 -165
0 0 9 -8 16 -20 16 -11 0 -20 2 -20 5 0 14 31 64 42 68 11 4 11 7 0 15 -9 6
-10 16 -4 32 10 26 -6 109 -31 155 -36 70 -86 95 -188 95 -48 0 -69 4 -69 13
0 8 -3 8 -8 1 -4 -6 -15 -13 -24 -17 -20 -7 -20 -9 -18 -164 1 -65 -3 -103 -9
-103 -6 0 -8 7 -5 15 9 23 -13 18 -30 -7 -11 -16 -13 -25 -4 -35 13 -16 35
-17 41 0 3 6 6 3 6 -8 0 -11 -3 -26 -8 -34 -6 -9 -4 -19 5 -28 31 -32 8 -43
-36 -18 -18 9 -29 10 -38 3 -7 -6 -15 -8 -19 -4 -4 3 2 12 12 20 23 16 12 36
-21 36 -21 0 -24 5 -24 35 0 19 -5 35 -11 35 -6 0 -9 -9 -6 -19 2 -10 1 -25
-4 -32 -6 -11 -14 -9 -38 9 -25 18 -31 19 -31 7 0 -8 -4 -15 -10 -15 -15 0
-12 77 3 83 10 3 10 9 0 26 -16 25 -18 115 -3 106 6 -3 10 3 10 14 0 12 -6 21
-12 22 -7 1 -24 2 -38 2 -14 1 -24 7 -23 12 1 6 -15 9 -38 7 -30 -3 -39 -1
-39 11 0 20 -32 31 -45 15 -16 -20 -36 -21 -57 -1 -10 9 -26 18 -34 19 -18 3
-41 -49 -25 -54 6 -2 11 -8 11 -12 0 -5 -21 -1 -46 8 -43 16 -46 16 -58 -1
-13 -16 -50 -17 -96 0 -8 3 -24 7 -35 8 -87 12 -237 71 -320 127 -180 119
-263 276 -253 473 7 136 69 222 216 298 l81 43 -32 12 c-77 31 -106 46 -169
88 -87 58 -174 154 -211 232 -38 82 -48 208 -23 293 29 101 122 183 241 214
81 20 213 14 284 -13z m2974 13 c29 -5 43 -14 63 -45 l26 -39 -37 -60 c-20
-33 -40 -63 -44 -65 -10 -6 -113 203 -106 214 3 5 18 7 33 5 15 -2 44 -7 65
-10z m711 -47 c-6 -72 10 -130 52 -185 14 -19 23 -37 20 -41 -4 -3 -33 -8 -67
-10 -71 -5 -87 5 -118 78 -23 52 -37 149 -24 165 4 6 37 20 73 32 36 12 66 22
67 22 1 1 0 -27 -3 -61z m-511 26 c42 -7 42 -6 21 -88 -24 -94 -27 -96 -60
-40 -15 27 -44 71 -63 97 l-34 49 49 -7 c27 -3 66 -8 87 -11z m143 -14 c11 0
14 -18 14 -76 0 -42 -4 -74 -8 -72 -18 7 -92 97 -92 111 0 37 12 49 43 43 16
-3 36 -6 43 -6z m-3516 -257 c242 -434 268 -483 259 -489 -5 -3 -16 1 -23 9
-8 8 -56 29 -106 47 -168 61 -303 168 -356 284 -33 72 -37 181 -8 242 19 40
89 114 108 114 6 0 63 -93 126 -207z m2871 184 c96 -51 119 -201 42 -270 -19
-17 -20 -16 -33 25 -22 76 -58 134 -111 182 -28 25 -55 46 -60 46 -22 0 -6 20
24 29 54 15 92 12 138 -12z m444 -72 c28 -40 32 -52 22 -64 -33 -44 -140 -161
-147 -161 -6 0 -30 118 -30 149 0 6 7 8 15 5 8 -4 15 -1 15 4 0 6 6 17 13 24
6 7 25 33 40 56 16 24 31 42 33 39 2 -2 20 -26 39 -52z m106 32 c-10 -9 -11
-8 -5 6 3 10 9 15 12 12 3 -3 0 -11 -7 -18z m-703 -36 c63 -45 106 -114 120
-191 l10 -55 -44 -42 c-54 -52 -81 -56 -82 -12 -3 113 -58 196 -159 241 -51
23 -48 39 15 79 42 27 46 27 79 14 19 -8 46 -23 61 -34z m797 -166 c-3 -49
-11 -147 -17 -217 l-11 -128 -77 0 c-43 0 -91 -3 -108 -6 -29 -6 -30 -5 -56
72 l-26 78 59 65 c50 57 63 66 88 63 37 -4 58 19 49 53 -5 21 2 36 41 80 32
36 50 50 55 42 4 -7 6 -52 3 -102z m-927 46 c58 -43 96 -115 105 -202 l5 -56
-61 -7 c-66 -7 -131 -33 -178 -73 -16 -14 -31 -24 -32 -22 -9 13 -47 163 -47
183 0 32 54 133 93 174 38 40 63 40 115 3z m182 -267 c0 -11 -5 -14 -16 -10
-9 3 -21 6 -27 7 -7 0 -3 4 8 9 29 13 35 12 35 -6z m698 -157 c17 -21 18 -85
1 -102 -20 -20 -140 -25 -162 -6 -24 19 -23 96 1 110 26 15 147 14 160 -2z
m-466 -69 c14 -12 58 -72 58 -80 0 -1 -30 -1 -66 0 -77 4 -86 16 -47 60 31 36
33 37 55 20z m-2404 -55 c5 -18 -19 -16 -43 3 -19 15 -19 15 9 12 16 -2 31 -9
34 -15z m95 -5 c-2 -5 0 -8 6 -8 5 0 12 6 14 13 4 9 8 8 16 -3 6 -9 11 -10 11
-3 0 9 108 12 433 13 479 1 558 -6 766 -61 64 -17 124 -32 133 -34 10 -2 59
-25 110 -51 246 -124 361 -232 404 -380 20 -71 15 -164 -14 -219 -41 -80 -136
-144 -214 -145 -20 0 -40 -5 -43 -10 -14 -23 128 -229 178 -257 27 -15 64 -17
72 -3 3 5 9 29 13 52 7 39 10 43 39 46 28 3 33 -1 39 -23 11 -43 -4 -163 -27
-215 -33 -77 -68 -103 -144 -108 -77 -5 -141 21 -181 74 -31 40 -80 168 -125
322 l-32 112 -54 0 -53 0 0 -191 c0 -112 4 -198 10 -210 7 -13 21 -19 44 -19
39 0 59 -19 54 -52 l-3 -23 -228 -3 -228 -2 3 37 c3 35 6 38 38 43 62 10 60 4
60 220 l0 199 -26 20 c-15 12 -33 21 -41 21 -28 0 -6 25 30 34 l37 10 0 230
c0 127 -4 236 -8 242 -4 6 -23 19 -42 29 -31 16 -33 19 -15 26 29 11 93 11
116 -1 14 -8 25 -6 45 7 26 16 28 16 78 -11 52 -28 53 -28 87 -11 19 10 57 19
86 21 29 1 57 5 63 9 11 7 91 -3 130 -16 53 -19 -33 41 -125 85 -148 72 -316
120 -520 147 -90 12 -350 6 -462 -10 -32 -4 -53 -4 -53 2 0 6 -5 5 -12 -1 -7
-5 -57 -15 -111 -21 -83 -10 -102 -9 -127 4 -38 20 -47 19 -53 -4 -4 -18 -14
-19 -93 -18 -81 2 -89 4 -92 22 -2 11 -17 29 -34 40 -46 29 -44 41 6 40 24 0
42 -3 39 -7z m-418 -48 c22 -12 47 -19 56 -17 13 3 36 -30 93 -134 l77 -138
-106 -210 c-72 -145 -110 -211 -121 -211 -29 0 -137 52 -191 92 -75 55 -99 84
-140 165 -51 103 -56 186 -17 273 37 84 121 152 229 186 56 18 75 17 120 -6z
m1405 -20 c118 -15 255 -44 343 -74 80 -27 220 -87 214 -92 -1 -2 -31 -6 -66
-9 -50 -4 -105 -18 -151 -38 -3 -1 -27 9 -52 23 -43 22 -50 23 -82 12 -25 -9
-45 -10 -71 -3 -39 10 -96 -1 -114 -23 -16 -20 -3 -45 28 -53 14 -3 29 -11 33
-17 4 -6 8 -108 8 -227 l0 -217 -27 -7 c-64 -16 -71 -54 -15 -82 l37 -18 3
-192 2 -193 -40 -6 c-51 -8 -62 -23 -58 -76 l3 -43 205 -5 c113 -3 185 -7 160
-8 -357 -17 -786 -45 -824 -52 -131 -27 -269 -134 -335 -258 -38 -73 -63 -194
-60 -292 l3 -65 -55 -2 c-30 -2 -177 -10 -328 -18 -150 -9 -275 -14 -278 -12
-2 3 122 257 276 565 187 374 287 565 302 572 13 8 19 18 16 30 -4 16 -1 17
26 9 16 -4 36 -18 44 -29 8 -11 21 -20 29 -20 8 0 14 -10 14 -24 0 -14 4 -36
10 -50 6 -18 6 -34 -2 -51 -17 -38 1 -90 32 -91 14 -1 46 -7 72 -14 41 -11 46
-15 38 -30 -12 -23 12 -45 41 -37 12 3 34 0 49 -8 23 -12 30 -12 46 0 16 11
17 18 9 42 -6 16 -8 47 -3 73 4 25 7 93 6 151 -1 58 1 110 4 115 4 5 48 7 101
4 106 -6 124 -15 159 -84 26 -51 29 -158 5 -203 -25 -48 -21 -66 19 -88 35
-19 36 -20 13 -25 -15 -4 -25 -14 -27 -28 -3 -20 -5 -21 -27 -6 -13 9 -22 21
-19 28 3 7 -2 19 -11 26 -13 11 -21 11 -36 2 -14 -9 -25 -9 -39 -2 -22 12
-100 13 -116 2 -22 -15 -22 -41 -1 -73 26 -38 37 -41 177 -44 79 -2 111 1 128
12 13 8 26 12 29 10 11 -12 105 47 136 86 54 66 70 106 75 185 7 115 -29 188
-127 254 -25 17 -48 32 -50 34 -2 2 13 17 33 35 81 71 116 176 96 285 -33 172
-168 259 -405 259 -88 0 -117 -4 -143 -18 -30 -16 -36 -17 -56 -4 -12 9 -39
47 -60 86 -42 81 -48 74 69 86 33 4 79 9 102 11 212 25 360 29 483 14z m1520
-195 c21 -11 36 -12 55 -5 37 14 78 12 101 -4 18 -14 18 -15 -14 -27 -18 -6
-36 -19 -41 -28 -5 -11 17 -91 67 -243 73 -219 77 -228 102 -228 14 0 36 -7
49 -16 l23 -16 -31 -19 c-17 -10 -31 -26 -31 -36 0 -14 85 -293 106 -347 3 -9
-4 -20 -20 -28 -17 -9 -23 -17 -17 -27 7 -10 13 -11 29 -2 18 9 23 8 32 -8 13
-26 13 -68 -2 -73 -6 -2 -12 -18 -12 -35 -1 -17 2 -29 7 -26 9 5 48 -78 41
-89 -3 -4 -1 -8 4 -8 6 0 12 -7 15 -14 4 -10 1 -13 -9 -9 -20 8 -17 -11 5 -31
11 -10 22 -28 25 -42 4 -13 13 -24 21 -24 8 0 15 -7 15 -15 0 -12 -5 -13 -26
-4 -15 5 -29 7 -32 5 -2 -3 -12 4 -22 16 -11 14 -29 21 -53 22 -20 1 -37 6
-38 11 0 6 -6 17 -14 25 -7 8 -21 35 -30 60 -10 25 -23 59 -31 77 -18 41 -18
51 4 56 9 3 2 5 -15 6 -32 1 -43 14 -23 26 18 11 10 25 -14 25 -20 0 -31 17
-84 135 -34 74 -66 153 -72 175 l-11 40 -29 -15 c-39 -20 -139 -20 -146 0 -4
11 -10 12 -18 6 -8 -7 -26 -3 -55 10 -24 11 -45 18 -47 16 -6 -5 -94 -291 -94
-303 0 -16 31 -34 59 -34 14 0 23 -9 27 -27 12 -46 -11 -52 -175 -50 l-146 2
0 35 c0 33 2 36 45 46 l45 11 67 189 c47 134 65 198 61 220 -6 40 14 60 71 68
45 7 66 30 47 49 -7 7 -19 4 -36 -7 -15 -10 -29 -16 -31 -14 -2 3 28 100 67
217 78 232 80 257 29 268 -17 3 -30 11 -30 19 0 19 67 29 106 15 27 -10 38 -9
61 3 35 19 29 19 63 1z m576 -13 c-5 -15 -4 -15 6 -2 21 25 66 25 87 -1 18
-22 18 -22 37 -3 15 15 36 20 97 21 74 3 78 2 72 -17 -5 -15 -2 -20 12 -19 10
0 13 3 6 6 -10 3 -10 8 1 19 36 36 54 -7 28 -66 l-11 -25 0 28 c-1 24 -3 26
-14 15 -26 -26 -37 -58 -38 -107 -1 -28 -6 -48 -10 -45 -5 3 -9 2 -9 -3 0 -4
-3 -19 -7 -32 -5 -18 -3 -22 7 -16 9 5 11 4 6 -4 -9 -14 12 -71 26 -71 5 0 7
-4 4 -9 -3 -5 14 -53 38 -107 42 -95 45 -99 80 -105 48 -8 56 -18 29 -36 -13
-9 -23 -23 -23 -32 0 -20 32 -111 39 -111 7 0 143 325 216 513 29 75 44 125
40 138 -4 12 -23 27 -42 36 -49 20 -28 39 40 36 29 -1 57 3 64 9 8 6 19 6 33
-2 12 -6 34 -9 49 -5 30 6 81 -9 81 -24 0 -5 -11 -12 -25 -15 -38 -10 -69 -66
-160 -290 l-83 -205 24 -16 c26 -17 24 -35 -5 -35 -10 0 -27 -10 -39 -23 -17
-18 -112 -228 -229 -504 -10 -25 -53 -15 -65 15 -6 15 -28 63 -49 107 -20 44
-56 124 -79 178 -24 53 -47 97 -52 97 -5 0 -7 4 -3 10 8 13 -19 72 -44 94 -21
19 -21 19 -21 -2 0 -15 5 -20 15 -16 11 5 15 -1 15 -21 0 -14 -4 -24 -8 -21
-5 3 -8 -45 -8 -107 1 -139 -16 -156 -25 -25 -4 51 -10 120 -14 153 -10 78 -9
106 3 114 5 3 0 14 -13 23 -23 17 -24 17 -29 -10 -5 -30 -3 -58 9 -86 6 -13 3
-23 -11 -33 -16 -12 -17 -15 -4 -23 12 -8 13 -13 3 -30 -8 -12 -13 -57 -13
-120 0 -82 -3 -100 -15 -100 -12 0 -15 17 -16 93 0 50 -4 101 -8 111 -6 17
-10 15 -29 -15 -15 -23 -22 -28 -22 -16 0 21 26 64 54 90 10 9 15 17 9 17 -6
0 -7 21 -1 58 4 31 7 87 6 125 l-1 67 -30 0 c-17 0 -27 3 -23 7 4 4 15 8 24 8
9 0 16 6 14 13 -1 7 3 22 8 33 6 11 8 30 4 42 -7 22 -7 22 -17 -3 -6 -17 -11
-20 -14 -11 -4 11 -7 11 -13 0 -5 -7 -18 -14 -29 -16 -23 -3 -23 -5 13 64 18
35 21 73 5 73 -5 0 -8 4 -4 9 9 15 -27 81 -44 81 -12 0 -13 2 -3 9 10 6 10 10
-2 20 -8 7 -21 14 -28 15 -19 3 -38 16 -38 27 0 5 3 8 8 7 4 0 14 2 22 5 20 8
46 12 98 14 37 2 43 0 38 -15z m410 4 c8 -9 10 -16 4 -19 -6 -3 -5 -4 2 -3 7
2 12 10 12 19 -1 12 6 16 22 15 13 -1 24 -3 24 -4 0 0 -9 -11 -20 -24 -13 -15
-20 -37 -20 -66 0 -24 -5 -46 -12 -50 -7 -4 -8 -3 -4 5 9 15 -1 61 -13 61 -11
0 -22 -61 -21 -116 0 -33 -3 -43 -18 -46 -17 -5 -18 -1 -11 36 4 22 5 44 3 48
-2 4 0 10 6 13 13 8 9 47 -5 57 -6 5 -5 8 3 8 7 0 12 15 12 40 0 42 11 50 36
26z m711 2 c4 -7 10 -35 13 -62 l5 -48 12 31 c6 17 7 29 2 25 -5 -3 -9 5 -9
18 l0 23 287 -5 288 -5 3 -139 c1 -81 7 -145 13 -153 18 -21 2 -62 -27 -69
-32 -8 -55 12 -88 80 -30 61 -112 143 -177 177 -33 17 -66 24 -131 27 l-88 4
0 -217 0 -217 95 4 c103 3 127 15 140 70 6 23 1 33 -26 59 -27 25 -30 32 -18
40 8 5 32 7 54 4 89 -12 136 -117 81 -182 l-24 -28 24 -30 c45 -56 28 -137
-36 -170 -38 -20 -110 -20 -110 -1 0 8 9 18 21 21 25 8 41 48 33 82 -9 36 -58
53 -154 53 l-80 0 0 -204 c0 -168 3 -206 15 -216 22 -18 141 -8 190 15 58 29
170 141 208 210 28 52 37 60 61 60 39 0 54 -25 39 -67 -7 -18 -14 -80 -18
-138 -3 -58 -8 -120 -11 -137 l-5 -33 -415 0 -415 0 3 37 c3 35 6 38 38 43 61
10 60 9 60 165 l0 144 28 15 27 15 -27 1 c-25 0 -28 4 -28 35 0 38 -36 85 -65
85 -8 0 -15 4 -15 10 0 13 34 30 59 30 21 0 21 4 21 205 0 113 3 205 8 205 14
-1 43 -28 35 -33 -16 -10 4 -357 20 -357 6 0 7 47 2 133 -9 144 -9 154 1 210
4 26 11 37 23 37 24 0 50 75 33 92 -9 9 -12 9 -12 -1 0 -10 -3 -11 -13 -2 -22
17 -60 19 -84 3 -20 -13 -23 -12 -29 2 -15 39 22 59 67 36 14 -8 25 -7 41 5
27 18 44 19 55 3z m-169 -80 c4 -13 6 -116 4 -230 -3 -190 -4 -208 -20 -208
-24 0 -62 -28 -62 -46 0 -8 15 -24 34 -35 19 -11 37 -28 41 -37 6 -15 8 -362
2 -368 -1 -1 -18 -5 -37 -9 -34 -6 -36 -5 -64 50 -16 31 -48 73 -71 93 -39 35
-127 72 -168 72 -23 0 -22 8 16 92 35 76 49 93 81 99 10 2 24 12 30 21 8 13 6
22 -11 40 l-21 23 72 180 c81 201 98 237 127 266 25 25 38 24 47 -3z m33 -11
c-10 -9 -11 -8 -5 6 3 10 9 15 12 12 3 -3 0 -11 -7 -18z m-664 -43 c-9 -9 -28
6 -21 18 4 6 10 6 17 -1 6 -6 8 -13 4 -17z m1121 -18 c61 -31 135 -110 167
-179 35 -73 71 -90 135 -63 12 5 94 -151 378 -720 199 -400 361 -729 358 -731
-2 -2 -127 3 -277 11 -151 9 -299 17 -329 19 -48 2 -55 4 -53 22 1 11 -2 72
-7 135 -8 102 -13 123 -46 189 -66 133 -199 240 -334 270 -25 5 -144 14 -265
21 -244 12 -285 16 -285 30 0 6 158 10 415 10 384 0 415 1 424 18 5 9 12 75
16 146 4 72 13 144 20 160 14 32 5 73 -18 88 -15 10 -69 10 -83 0 -6 -4 -24
-32 -39 -62 -32 -64 -142 -177 -200 -205 -27 -13 -61 -19 -105 -20 l-65 0 -3
193 -2 192 63 0 c35 0 78 -5 96 -11 26 -9 31 -16 31 -44 0 -25 -5 -35 -20 -40
-30 -10 -42 -38 -25 -61 10 -14 25 -19 58 -18 118 2 185 112 128 210 -11 19
-17 34 -12 34 14 0 31 50 31 91 0 55 -26 95 -75 119 -53 25 -96 25 -126 0
l-24 -20 33 -28 c35 -31 43 -71 16 -92 -8 -8 -51 -15 -95 -18 l-79 -5 0 192 0
191 75 0 c60 0 85 -5 123 -24z m-1123 -23 c-3 -16 -11 -32 -17 -38 -8 -7 -9
-4 -4 8 3 10 6 27 6 38 0 10 5 19 11 19 7 0 9 -10 4 -27z m-395 2 c0 -9 -6
-12 -15 -9 -19 8 -45 -13 -45 -35 0 -10 9 -27 19 -38 19 -20 27 -83 11 -83
-11 0 -70 68 -70 80 0 30 37 81 64 89 17 5 32 10 34 10 1 1 2 -6 2 -14z m-752
-31 c20 -3 32 -10 29 -17 -2 -7 -24 -72 -48 -144 -28 -87 -48 -133 -57 -133
-8 0 -39 14 -69 31 -58 33 -59 38 -27 101 17 33 69 74 107 83 15 4 26 9 23 12
-4 4 -54 -8 -90 -22 -16 -7 -17 -5 -11 26 4 19 11 44 16 57 9 24 11 24 127 6z
m724 -16 c-7 -7 -12 -8 -12 -2 0 14 12 26 19 19 2 -3 -1 -11 -7 -17z m48 8 c0
-17 -14 -29 -23 -20 -8 8 3 34 14 34 5 0 9 -6 9 -14z m-231 -27 l23 -30 -35
-67 c-19 -37 -38 -66 -43 -64 -5 1 -23 45 -41 97 l-32 95 53 0 c47 0 55 -3 75
-31z m711 -8 c0 -32 -14 -48 -26 -30 -5 8 -3 9 6 4 10 -6 12 -1 7 23 -4 19 -2
32 3 32 6 0 10 -13 10 -29z m-80 -41 c0 -5 -5 -10 -11 -10 -5 0 -7 5 -4 10 3
6 8 10 11 10 2 0 4 -4 4 -10z m-540 -22 c44 -31 58 -54 42 -70 -9 -9 -12 -6
-12 15 0 17 -5 27 -15 27 -19 0 -32 -49 -15 -60 8 -5 3 -13 -17 -27 -63 -45
-123 -66 -123 -44 0 5 17 38 39 72 21 35 41 74 45 87 4 12 11 22 15 22 5 0 23
-10 41 -22z m576 -5 c-10 -10 -19 5 -10 18 6 11 8 11 12 0 2 -7 1 -15 -2 -18z
m-3702 -104 c-52 -104 -52 -105 -60 -97 -3 4 2 21 11 40 31 62 89 158 93 154
2 -2 -18 -46 -44 -97z m3680 92 c3 -4 -3 -16 -14 -26 -19 -18 -20 -17 -20 8 0
26 22 38 34 18z m-392 -23 c-6 -6 -15 -8 -19 -4 -4 4 -1 11 7 16 8 5 17 7 19
4 3 -2 -1 -10 -7 -16z m-77 -60 c32 -14 32 -36 0 -70 -14 -15 -25 -34 -25 -43
0 -8 11 -20 25 -25 26 -10 32 -24 14 -36 -6 -3 -9 -17 -6 -30 2 -14 -1 -25
-10 -28 -27 -11 -37 -6 -18 8 12 9 16 19 11 32 -4 10 -6 19 -5 19 1 0 -3 10
-10 23 -15 28 -32 28 -59 -1 -15 -16 -18 -27 -12 -37 8 -13 13 -13 32 -1 23
14 23 13 5 -6 -16 -18 -16 -22 -3 -35 9 -9 11 -20 6 -28 -11 -18 -4 -29 25
-40 17 -6 22 -15 18 -29 -3 -13 2 -23 16 -30 12 -7 21 -9 21 -5 0 4 2 5 5 2 9
-8 -23 -63 -37 -64 -7 0 -18 -2 -25 -2 -6 -1 -16 -16 -22 -34 -7 -19 -15 -28
-20 -22 -5 5 -28 69 -51 143 -40 128 -41 135 -24 148 10 7 21 13 25 13 4 0 10
7 13 16 8 20 -10 43 -44 56 l-25 10 29 15 c26 14 30 14 38 -1 11 -20 44 -21
52 -1 3 8 -1 20 -8 27 -11 10 -9 18 13 40 14 16 27 28 28 28 1 0 14 -5 28 -12z
m85 -10 c0 -6 -7 -7 -16 -4 -9 3 -20 6 -25 6 -6 0 -8 4 -5 9 8 12 46 2 46 -11z
m-2879 -91 c-11 -11 -51 -20 -51 -12 0 3 12 29 28 58 l27 52 3 -44 c2 -24 -1
-48 -7 -54z m2899 24 c0 -16 -6 -21 -25 -21 -24 0 -25 2 -14 23 7 12 12 23 11
25 -9 13 1 20 13 8 8 -8 15 -24 15 -35z m-50 15 c0 -3 -4 -8 -10 -11 -5 -3
-10 -1 -10 4 0 6 5 11 10 11 6 0 10 -2 10 -4z m-1559 -275 l28 -94 -35 -41
c-20 -23 -45 -62 -57 -88 -14 -30 -24 -43 -29 -35 -4 7 -8 90 -8 185 l0 173
37 -3 37 -3 27 -94z m1579 90 c0 -6 -4 -13 -10 -16 -5 -3 -17 -21 -26 -40 -9
-19 -21 -35 -26 -35 -5 0 3 22 19 50 26 47 43 63 43 41z m-3410 -7 c0 -3 -55
-116 -121 -252 -67 -136 -173 -353 -236 -482 -105 -214 -261 -491 -286 -507
-6 -3 116 243 270 548 155 305 297 587 317 627 20 39 41 72 46 72 6 0 10 -3
10 -6z m394 -9 c18 -14 17 -15 -21 -15 -43 0 -66 15 -36 23 30 8 37 7 57 -8z
m2956 6 c0 -5 -7 -12 -16 -15 -14 -5 -15 -4 -4 9 14 17 20 19 20 6z m-2800
-21 c0 -5 -7 -10 -15 -10 -8 0 -15 5 -15 10 0 6 7 10 15 10 8 0 15 -4 15 -10z
m2976 -36 c-3 -9 -6 -20 -6 -25 0 -5 -4 -9 -9 -9 -4 0 -6 11 -3 25 2 14 9 25
14 25 6 0 7 -7 4 -16z m-734 -41 c36 -3 80 -1 97 5 27 9 31 9 31 -6 0 -23 127
-304 143 -317 6 -5 13 -18 13 -27 2 -17 -13 -18 -186 -18 l-187 0 -5 83 c-3
59 -12 100 -32 147 -40 96 -41 99 -19 94 15 -4 23 2 33 26 9 22 17 29 29 24 9
-3 46 -9 83 -11z m613 -43 c-3 -5 2 -13 11 -18 10 -6 15 -16 11 -25 -5 -13
-10 -14 -31 -4 -28 13 -33 36 -14 55 12 12 32 6 23 -8z m-85 -71 c-7 -11 -14
-18 -17 -15 -8 8 5 36 17 36 7 0 7 -6 0 -21z m35 -9 c-19 -21 -14 -50 8 -50 8
0 20 7 27 15 10 12 10 18 0 30 -17 20 -9 27 13 11 16 -12 16 -16 1 -57 -8 -24
-18 -77 -21 -116 l-6 -73 -45 0 c-36 0 -43 3 -34 12 17 17 15 80 -3 104 -23
30 -18 52 20 92 19 20 35 40 35 45 0 4 5 7 12 7 6 0 4 -8 -7 -20z m-2063 -151
c-18 -16 -37 -27 -41 -24 -5 2 -14 -2 -21 -10 -17 -21 -33 -19 -48 5 -11 18
-9 21 15 31 16 6 35 15 43 19 8 5 31 9 50 9 l35 0 -33 -30z m-225 -46 c23 -16
24 -17 7 -24 -72 -28 -202 10 -204 59 0 15 93 17 122 1 17 -9 23 -8 32 7 10
18 11 18 14 -4 2 -12 15 -30 29 -39z m93 12 c14 -17 7 -31 -20 -38 -23 -6 -27
11 -5 19 12 5 13 10 4 20 -7 8 -7 14 -1 14 5 0 15 -7 22 -15z m1987 -179 c4
-3 -113 -6 -258 -6 -578 0 -1759 -51 -1919 -82 -76 -14 -168 -53 -212 -88 -47
-39 -60 -38 -23 0 93 97 159 117 443 135 527 33 1236 54 1680 50 156 -2 286
-6 289 -9z m351 -3 c-26 -2 -71 -2 -100 0 -29 2 -8 3 47 3 55 0 79 -1 53 -3z
m928 -58 c57 -17 164 -95 227 -165 47 -52 105 -155 131 -233 43 -128 39 -283
-9 -383 -47 -96 -159 -180 -305 -230 -121 -41 -323 -18 -462 52 -49 25 -53 30
-42 59 6 14 8 14 25 -1 11 -9 19 -23 19 -31 0 -17 32 -13 37 4 3 7 -6 17 -19
22 -36 13 -50 35 -42 65 l6 26 37 -21 c20 -12 42 -29 49 -38 7 -9 18 -15 23
-13 6 1 40 -7 76 -18 98 -30 224 -37 298 -15 33 9 69 24 80 34 11 9 39 29 62
44 84 53 133 158 133 286 0 232 -173 466 -403 545 -22 7 -13 26 12 26 9 0 40
-7 67 -15z m-2829 -75 c68 1 85 -4 77 -24 -3 -8 -18 -12 -37 -11 l-32 3 3
-224 3 -224 24 0 c13 0 27 -4 30 -10 3 -5 19 -10 36 -10 l29 0 0 89 c0 62 4
91 13 94 10 3 10 9 0 26 -7 11 -13 50 -13 86 0 51 3 65 15 65 9 0 15 9 15 25
0 14 -5 25 -11 25 -6 0 -24 14 -41 31 -41 40 -27 56 34 41 34 -9 47 -8 65 3
25 17 37 19 29 6 -3 -5 1 -14 9 -21 12 -10 15 -9 15 5 0 14 3 15 14 6 11 -9
20 -10 36 -1 25 14 92 9 97 -6 2 -7 -10 -17 -27 -22 -16 -6 -30 -17 -30 -24 0
-8 -9 -21 -20 -31 -11 -9 -20 -23 -20 -32 0 -8 9 -19 20 -25 19 -10 20 -21 20
-175 0 -164 0 -165 23 -165 51 0 213 -98 194 -117 -3 -3 -28 8 -54 24 -27 17
-65 36 -86 42 -34 12 -41 11 -59 -6 -19 -17 -20 -27 -16 -143 3 -102 8 -132
25 -165 30 -57 50 -72 121 -90 91 -24 162 -8 218 49 53 52 64 93 64 228 l0
107 -35 24 c-26 18 -32 26 -23 35 7 7 22 12 35 12 l23 0 0 209 0 210 -26 20
c-15 12 -33 21 -40 21 -8 0 -14 4 -14 10 0 14 45 23 79 17 15 -3 33 -1 39 5 8
8 18 9 36 0 13 -6 33 -8 45 -5 25 6 71 -4 71 -16 0 -5 -11 -12 -25 -15 -48
-12 -55 -47 -55 -261 l0 -195 24 0 c13 0 29 -6 35 -14 10 -12 7 -18 -18 -31
-37 -19 -39 -28 -43 -175 -3 -101 -6 -121 -28 -160 -30 -54 -90 -101 -167
-131 -79 -32 -281 -34 -359 -5 -64 24 -133 73 -171 122 -27 36 -28 43 -33 173
-3 75 -9 142 -14 149 -9 16 -46 9 -81 -14 -20 -13 -23 -25 -28 -127 -6 -120
-24 -193 -63 -243 l-23 -31 29 -46 c16 -25 52 -64 82 -87 29 -23 57 -49 61
-56 5 -8 12 -12 17 -9 5 3 26 -3 47 -14 21 -10 57 -24 81 -31 26 -8 42 -19 42
-29 0 -10 3 -12 8 -5 5 8 25 9 67 3 142 -21 160 -25 157 -38 -1 -8 4 -11 15
-7 60 18 73 18 73 2 0 -9 5 -16 10 -16 6 0 10 4 10 9 0 10 123 31 184 31 26 0
46 -5 46 -11 0 -6 -9 -8 -21 -4 -19 6 -21 4 -16 -14 6 -24 -20 -31 -29 -7 -5
14 -54 10 -54 -4 0 -18 71 -20 121 -4 43 14 52 15 60 3 6 -10 9 -11 9 -1 0 7
-15 21 -32 32 l-33 20 33 0 c22 0 32 -5 32 -15 0 -8 4 -15 10 -15 14 0 42 -59
34 -72 -9 -14 -105 -3 -115 14 -6 10 -15 10 -42 0 -42 -15 -47 -15 -47 1 0 9
-11 12 -35 9 -27 -3 -35 -1 -35 12 0 19 -46 22 -53 4 -3 -10 -12 -8 -36 5 -17
10 -40 16 -50 12 -16 -5 -18 -11 -11 -35 l9 -30 -35 15 c-34 14 -64 11 -64 -7
0 -10 -70 0 -84 12 -5 5 -14 6 -20 4 -20 -8 -176 45 -241 81 -97 55 -174 123
-214 192 -29 51 -40 62 -56 57 -37 -10 -143 -17 -168 -10 -19 4 -26 14 -29 41
l-4 35 20 -24 c27 -32 59 -38 64 -11 2 11 19 34 38 51 l34 32 2 133 c2 206 -2
235 -38 251 -31 14 -27 40 6 48 l25 6 3 194 c1 107 0 205 -3 217 -3 15 -16 25
-38 31 -54 14 -31 27 47 27 41 0 78 4 83 8 4 5 19 5 33 2 14 -4 53 -6 87 -5z
m1954 -25 c22 -12 34 -13 50 -5 11 6 32 10 47 8 33 -4 42 -34 13 -43 -19 -6
-21 -14 -21 -105 0 -127 -15 -195 -47 -209 -24 -11 -31 -3 -11 17 8 8 8 15 -1
26 -6 7 -13 22 -15 33 -2 10 -20 42 -40 72 -40 61 -40 73 -7 120 20 27 21 35
10 42 -8 5 -10 9 -4 9 5 0 4 5 -3 12 -12 12 -17 38 -7 38 4 0 19 -7 36 -15z
m667 0 c16 -12 27 -13 41 -5 28 14 74 12 97 -5 16 -12 16 -14 3 -15 -9 0 -27
-8 -40 -18 l-22 -19 68 -211 c66 -205 70 -212 95 -212 14 0 34 -6 44 -13 17
-13 17 -14 -8 -30 -33 -22 -33 -43 4 -152 17 -49 30 -92 30 -95 0 -14 -88 -35
-145 -35 l-60 0 -29 78 c-24 62 -33 76 -45 70 -9 -4 -46 -9 -84 -11 -59 -3
-66 -2 -61 13 6 15 4 15 -13 5 -16 -10 -25 -9 -52 5 -18 9 -36 14 -39 10 -11
-11 -92 -277 -86 -286 2 -4 20 -11 38 -15 20 -3 36 -13 38 -22 11 -39 1 -42
-148 -42 l-145 0 3 27 c2 22 10 30 41 38 22 6 43 18 48 27 23 42 112 318 113
353 1 31 6 42 26 52 14 7 35 13 46 13 28 0 51 27 36 42 -8 8 -18 6 -36 -6 -20
-12 -26 -13 -26 -3 0 7 29 99 64 205 69 205 69 210 16 227 -11 3 -20 10 -20
15 0 20 68 27 101 10 14 -8 26 -7 46 4 35 19 34 19 61 1z m-1448 -13 c8 -2 20
-3 25 -2 55 7 119 3 122 -7 3 -7 -2 -13 -11 -13 -8 0 -27 -11 -42 -25 -14 -13
-43 -27 -63 -30 -20 -4 -45 -8 -55 -10 -11 -2 -27 0 -37 6 -11 6 -20 5 -24 -1
-3 -5 -15 -10 -26 -10 -17 0 -24 14 -20 46 1 7 -15 15 -34 18 -22 4 -35 12
-32 19 4 14 84 19 107 7 9 -5 23 -2 34 6 10 7 24 10 30 6 6 -3 18 -8 26 -10z
m571 -7 c1 -5 1 -19 0 -30 -1 -18 0 -19 12 -3 12 15 15 12 36 -27 14 -27 20
-51 16 -64 -10 -33 3 -61 30 -61 27 0 45 -26 45 -62 l-1 -23 -19 23 c-10 13
-17 29 -14 36 3 9 -4 11 -26 8 -16 -2 -30 -9 -30 -16 -1 -13 -30 24 -30 38 0
5 6 2 13 -8 12 -17 15 -17 20 -3 10 25 -15 78 -33 72 -26 -8 -107 92 -97 119
7 17 76 17 78 1z m79 -4 c13 -26 13 -31 -5 -31 -8 0 -15 7 -15 15 0 8 -4 15
-10 15 -5 0 -10 5 -10 10 0 18 29 11 40 -9z m37 -73 c6 -7 13 -29 16 -48 4
-30 2 -36 -13 -36 -23 0 -33 33 -13 41 14 5 14 8 -1 23 -9 10 -16 22 -16 25 0
11 17 8 27 -5z m-597 -100 c-1 -51 -1 -139 -1 -195 1 -101 2 -103 24 -103 43
0 49 -21 14 -44 l-32 -22 -3 -184 c-2 -140 1 -185 10 -192 21 -13 126 -9 161
6 39 17 98 78 161 169 60 85 111 122 150 107 40 -15 32 -52 -13 -61 -18 -4
-37 -12 -41 -18 -3 -7 -12 -62 -19 -124 -7 -62 -15 -122 -18 -134 l-5 -23
-355 0 -354 0 3 33 c3 28 7 33 38 37 52 8 60 32 60 200 0 159 -7 186 -53 208
-22 11 -26 17 -17 27 6 8 24 15 38 17 l27 3 3 113 c3 107 4 113 22 107 11 -4
20 -3 20 2 0 4 30 9 67 10 37 2 71 7 77 13 7 7 -12 9 -61 4 -39 -4 -83 -4 -97
0 -24 6 -26 11 -24 50 l1 45 47 6 c25 3 50 5 56 4 5 -1 16 0 24 4 28 10 75 25
83 26 5 1 8 -41 7 -91z m647 -60 c-3 -8 -6 -5 -6 6 -1 11 2 17 5 13 3 -3 4
-12 1 -19z m-67 -91 c10 -56 10 -73 0 -93 -8 -13 -17 -24 -22 -24 -4 0 -8 51
-7 113 0 118 7 120 29 4z m84 57 c20 -8 21 -44 1 -44 -8 0 -15 -4 -15 -10 0
-5 9 -10 20 -10 11 0 20 -4 20 -8 0 -4 13 -13 30 -19 16 -6 33 -18 36 -27 8
-22 -15 -49 -38 -43 -22 6 -23 -6 -3 -23 9 -7 14 -19 11 -26 -2 -6 5 -14 16
-17 11 -3 17 -10 13 -16 -3 -6 0 -11 7 -11 8 0 14 -14 16 -35 2 -29 -2 -37
-20 -45 l-23 -9 23 0 c13 -1 22 -7 22 -17 0 -8 7 -22 15 -30 19 -19 19 -51 1
-61 -10 -5 -15 -30 -16 -78 -1 -38 -1 -73 0 -77 1 -5 3 -11 4 -15 1 -5 8 -19
15 -32 14 -25 2 -71 -19 -71 -5 0 -10 -3 -10 -8 0 -4 48 -4 108 1 59 4 134 5
167 2 33 -3 98 -8 144 -11 92 -6 348 -79 409 -116 18 -11 35 -18 38 -16 2 3
-7 30 -21 62 -29 66 -30 76 -10 76 8 0 15 5 15 10 0 6 -14 10 -31 10 -28 0
-30 2 -18 17 12 14 12 17 0 21 -22 7 59 34 109 36 39 1 45 -2 50 -24 4 -14 2
-31 -4 -39 -12 -16 -18 -73 -6 -66 8 5 36 -55 32 -69 -2 -4 5 -15 15 -23 10
-8 13 -12 6 -9 -18 9 -28 -15 -11 -25 9 -5 21 -22 28 -39 7 -16 19 -30 26 -30
8 0 14 -5 14 -11 0 -7 -10 -9 -25 -7 l-25 5 23 -31 c13 -17 34 -51 46 -75 17
-32 26 -40 34 -32 8 8 6 15 -9 26 -11 8 -14 14 -6 15 15 0 74 -91 123 -191 4
-9 5 -27 2 -39 -5 -20 -4 -21 14 -11 16 8 24 7 32 -3 6 -7 9 -15 6 -18 -9 -9
19 -53 33 -53 17 0 182 -166 182 -183 0 -7 6 -12 13 -10 21 4 171 -101 184
-130 8 -18 12 -21 13 -9 0 21 -2 21 84 -4 106 -32 209 -24 307 22 89 43 133
85 168 159 22 47 26 68 25 145 0 105 -21 172 -80 262 -73 109 -166 183 -289
230 -16 6 -12 8 19 11 65 6 139 -34 233 -126 109 -108 173 -260 173 -409 -1
-145 -50 -241 -160 -313 -97 -62 -177 -85 -295 -84 -144 0 -243 34 -388 132
-79 54 -230 194 -217 202 17 11 0 38 -38 62 l-36 22 32 8 c26 7 31 13 28 31
-3 12 -5 25 -5 30 -1 4 -10 7 -20 7 -11 0 -26 7 -34 15 -8 8 -17 11 -21 8 -3
-4 -6 -1 -6 5 0 7 5 12 10 12 18 0 11 29 -9 40 -14 7 -22 7 -26 -1 -5 -7 -13
-5 -25 6 -16 15 -18 14 -24 -19 -4 -18 -14 -40 -23 -47 -14 -13 -15 -9 -9 44
5 34 4 63 -2 70 -5 7 -12 29 -16 50 -5 27 -12 37 -25 37 -10 0 -35 18 -55 40
-36 40 -46 70 -24 70 23 0 -33 47 -105 88 -82 47 -216 93 -339 117 -100 20
-346 30 -443 18 l-70 -8 -6 -35 -6 -35 -2 33 c-1 27 -5 32 -26 32 -25 0 -25 0
-27 -102 0 -57 -2 -107 -3 -113 0 -5 -5 -51 -9 -100 -11 -136 -25 -141 -28
-10 l-1 110 -9 -85 c-4 -47 -11 -139 -14 -205 -3 -66 -7 -122 -10 -124 -2 -2
-4 67 -4 154 0 152 -6 199 -14 101 -7 -94 -17 -57 -15 54 1 63 -1 155 -6 203
l-8 89 -33 -6 c-18 -4 -83 -23 -144 -42 -61 -19 -117 -33 -123 -31 -7 2 -18
-2 -25 -9 -7 -8 -58 -27 -113 -44 -86 -27 -105 -30 -129 -20 -32 13 -54 5 -46
-16 3 -9 -4 -16 -22 -20 -15 -3 -40 -10 -57 -14 -56 -16 -106 -16 -118 1 -7 9
-29 24 -49 34 -21 9 -38 21 -38 25 0 4 24 7 53 7 35 0 51 4 49 12 -1 7 3 11
10 10 7 -1 20 0 28 4 35 13 60 15 60 4 0 -9 2 -9 8 -1 4 7 99 33 212 58 527
120 480 107 480 131 0 34 -50 52 -82 31 -25 -16 -38 -13 -38 10 0 22 43 56 66
51 24 -4 23 -9 25 131 1 59 6 113 11 119 7 8 6 23 -1 44 -12 34 -8 49 14 49
17 0 27 15 30 44 1 11 3 25 4 29 0 4 10 3 21 -3 13 -7 31 -7 52 -1 18 5 26 10
17 10 -9 1 -19 8 -23 16 -3 8 -14 15 -24 15 -13 0 -22 12 -30 39 -21 68 -16
80 19 42 16 -18 32 -31 35 -28 12 12 -11 59 -32 68 -20 7 -23 13 -18 36 11 45
12 47 38 37z m325 -395 l-21 -59 -29 21 c-16 11 -29 25 -29 30 0 5 -5 9 -12 9
-13 0 -98 87 -99 104 -1 6 -1 17 1 25 1 7 -11 26 -26 42 -26 28 -27 29 -7 29
15 0 23 -7 25 -22 2 -15 11 -24 26 -26 12 -2 20 -8 17 -13 -4 -5 1 -9 9 -9 8
0 22 -10 30 -22 9 -12 17 -19 17 -15 1 4 2 11 3 16 0 5 4 13 9 17 14 14 7 24
-17 24 -14 0 -28 5 -31 10 -3 6 -1 10 5 10 6 0 4 10 -6 25 -11 17 -25 25 -45
25 -16 0 -29 5 -29 10 0 6 7 10 15 10 8 0 15 6 15 12 0 7 45 -34 101 -91 l100
-104 -22 -58z m-485 170 c-3 -5 -10 -7 -15 -3 -5 3 -7 10 -3 15 3 5 10 7 15 3
5 -3 7 -10 3 -15z m336 11 c0 -5 -7 -10 -15 -10 -8 0 -15 5 -15 10 0 6 7 10
15 10 8 0 15 -4 15 -10z m2913 -44 c30 -13 28 -13 -35 -8 -38 2 -68 1 -68 -3
0 -4 9 -18 20 -32 27 -34 25 -65 -5 -93 -20 -18 -32 -22 -64 -17 -28 3 -44 1
-52 -9 -15 -19 -63 -18 -79 1 -22 27 -38 16 -51 -35 -8 -29 -17 -46 -22 -41
-5 5 -1 35 9 72 42 149 203 226 347 165z m-5658 -63 c-5 -20 -8 -23 -20 -13
-18 15 -19 42 -3 58 17 17 32 -11 23 -45z m-1705 38 c-8 -5 -36 -12 -62 -15
-27 -4 -48 -10 -48 -13 0 -2 9 -16 20 -30 24 -30 25 -45 6 -82 -15 -29 -53
-51 -88 -51 -11 0 -33 -11 -50 -25 -34 -29 -46 -31 -75 -10 -20 14 -22 13 -37
-25 -9 -22 -16 -48 -16 -58 0 -13 -2 -14 -9 -3 -5 7 -4 31 1 53 26 116 119
219 231 254 47 14 151 19 127 5z m1840 -177 c14 -47 34 -86 57 -113 38 -45 39
-77 2 -66 -15 5 -22 2 -26 -13 -4 -18 -9 -19 -31 -11 -14 5 -32 7 -40 4 -12
-4 -14 2 -8 32 3 21 6 94 7 163 1 132 1 132 39 4z m1313 -481 c-7 -2 -21 -2
-30 0 -10 3 -4 5 12 5 17 0 24 -2 18 -5z m795 0 c-16 -2 -40 -2 -55 0 -16 2
-3 4 27 4 30 0 43 -2 28 -4z m192 2 c0 -3 -28 -49 -63 -102 -35 -54 -74 -115
-86 -136 -13 -21 -25 -36 -28 -33 -2 2 17 38 44 79 55 86 106 169 111 179 2 4
-25 9 -60 11 l-63 3 73 2 c39 1 72 0 72 -3z m1320 -76 c7 -11 10 -22 8 -25 -8
-7 -48 27 -43 37 10 15 24 10 35 -12z m-2470 -44 c14 -17 3 -20 -39 -8 -23 6
-23 7 -5 14 28 11 30 11 44 -6z m307 -152 c-6 -5 -77 107 -77 121 0 5 18 -19
41 -54 22 -34 38 -64 36 -67z m883 73 c0 -14 -276 -436 -285 -436 -11 0 167
284 201 321 13 14 24 31 24 37 0 12 49 92 56 92 2 0 4 -6 4 -14z m-85 -86 c-5
-8 -11 -8 -17 -2 -6 6 -7 16 -3 22 5 8 11 8 17 2 6 -6 7 -16 3 -22z m1343 5
c-3 -3 -9 2 -12 12 -6 14 -5 15 5 6 7 -7 10 -15 7 -18z m-2109 -35 c11 -24 11
-24 -3 -6 -9 11 -16 24 -16 30 0 12 5 7 19 -24z m615 5 c-9 -14 -18 -25 -20
-25 -2 0 2 11 8 25 6 14 15 25 20 25 5 0 1 -11 -8 -25z m323 -17 c-3 -8 -6 -5
-6 6 -1 11 2 17 5 13 3 -3 4 -12 1 -19z m-267 -19 c0 -5 -4 -9 -10 -9 -5 0
-10 7 -10 16 0 8 5 12 10 9 6 -3 10 -10 10 -16z m1544 -4 c-3 -7 -14 -11 -25
-8 -27 7 -24 21 5 21 16 0 23 -5 20 -13z m-2164 -42 c12 -20 16 -32 8 -26 -17
15 -54 78 -40 70 5 -4 20 -24 32 -44z m523 16 c-10 -17 -25 -36 -33 -42 -12
-10 -13 -9 -4 3 5 8 18 27 27 43 24 37 32 34 10 -4z m1655 -27 c6 -9 12 -19
12 -24 0 -17 -20 -7 -40 22 -19 27 -19 29 -3 24 10 -4 24 -14 31 -22z m46 -8
c20 -8 21 -34 2 -34 -7 0 -16 9 -19 20 -6 22 -5 23 17 14z m-2186 -49 c-3 -3
-9 2 -12 12 -6 14 -5 15 5 6 7 -7 10 -15 7 -18z m435 10 c-3 -9 -8 -14 -10
-11 -3 3 -2 9 2 15 9 16 15 13 8 -4z m-399 -61 c3 -8 2 -12 -4 -9 -6 3 -10 10
-10 16 0 14 7 11 14 -7z m357 -7 c-10 -9 -11 -8 -5 6 3 10 9 15 12 12 3 -3 0
-11 -7 -18z m-136 -737 c15 -6 8 -9 -30 -10 -27 -1 -58 -5 -68 -9 -17 -6 -17
-8 2 -25 21 -19 27 -59 15 -91 -8 -21 -60 -47 -87 -43 -12 1 -33 -5 -47 -15
-30 -21 -63 -22 -80 -2 -20 24 -27 18 -48 -42 -18 -51 -21 -54 -21 -26 -1 18
8 57 20 87 24 66 106 146 171 169 47 17 141 21 173 7z"/>
<path d="M4956 5919 c7 -13 92 -54 128 -63 33 -8 76 15 76 41 0 13 -3 14 -12
5 -18 -18 -81 -15 -143 7 -31 11 -53 15 -49 10z"/>
<path d="M1300 5065 c0 -9 9 -15 21 -15 18 0 19 2 9 15 -7 8 -16 15 -21 15 -5
0 -9 -7 -9 -15z"/>
<path d="M1567 4956 c-5 -13 13 -28 38 -30 6 -1 21 -7 33 -14 29 -17 32 -14
21 17 -7 19 -12 21 -23 11 -12 -9 -19 -7 -35 9 -25 25 -27 25 -34 7z"/>
<path d="M2640 4523 l-35 -18 0 -215 0 -215 102 -2 102 -1 35 51 c47 69 61
137 46 226 -6 37 -20 81 -30 98 -46 77 -150 112 -220 76z m159 -40 c50 -38 71
-93 71 -187 0 -60 -5 -90 -20 -122 -33 -67 -50 -77 -140 -82 l-80 -5 0 206 0
205 28 11 c39 14 102 3 141 -26z"/>
<path d="M1570 4076 c0 -9 7 -16 16 -16 9 0 14 5 12 12 -6 18 -28 21 -28 4z"/>
<path d="M1628 4063 c7 -3 16 -2 19 1 4 3 -2 6 -13 5 -11 0 -14 -3 -6 -6z"/>
<path d="M2405 4040 c-3 -5 1 -10 9 -10 8 0 18 5 21 10 3 6 -1 10 -9 10 -8 0
-18 -4 -21 -10z"/>
<path d="M2490 4030 c0 -13 5 -18 15 -14 12 5 13 10 4 20 -15 19 -19 18 -19
-6z"/>
<path d="M1903 4023 c4 -3 2 -12 -4 -20 -9 -10 -7 -13 8 -13 10 0 24 -5 31
-12 9 -9 12 -9 12 0 0 16 19 15 54 -3 43 -23 49 -18 19 15 -14 17 -36 30 -47
30 -17 0 -18 -2 -6 -10 12 -8 11 -10 -8 -10 -12 0 -25 7 -28 15 -4 8 -13 15
-22 15 -8 0 -12 -3 -9 -7z"/>
<path d="M2280 3986 c0 -10 6 -13 15 -10 8 4 22 1 30 -6 8 -7 15 -9 15 -4 -1
29 -60 48 -60 20z"/>
<path d="M2530 3945 c0 -17 2 -18 24 -9 23 9 20 24 -4 24 -11 0 -20 -7 -20
-15z"/>
<path d="M2460 3867 c0 -35 15 -49 34 -30 4 4 14 8 22 8 24 0 20 18 -5 20 -13
1 -30 10 -37 20 -13 17 -14 15 -14 -18z"/>
<path d="M3002 3881 c2 -7 7 -12 11 -12 12 1 9 15 -3 20 -7 2 -11 -2 -8 -8z"/>
<path d="M2940 3850 c0 -11 7 -20 15 -20 8 0 15 9 15 20 0 11 -7 20 -15 20 -8
0 -15 -9 -15 -20z"/>
<path d="M2994 3775 c-3 -8 -3 -19 1 -25 11 -18 25 -11 25 15 0 27 -17 34 -26
10z"/>
<path d="M2420 3773 c0 -5 5 -15 10 -23 8 -12 10 -11 10 8 0 12 -4 22 -10 22
-5 0 -10 -3 -10 -7z"/>
<path d="M2493 3773 c-26 -5 -30 -21 -9 -29 13 -5 76 21 76 31 0 6 -34 4 -67
-2z"/>
<path d="M3067 3764 c-8 -8 1 -24 14 -24 5 0 9 7 9 15 0 15 -12 20 -23 9z"/>
<path d="M2517 3693 c-4 -3 -7 -11 -7 -17 0 -6 5 -5 12 2 6 6 9 14 7 17 -3 3
-9 2 -12 -2z"/>
<path d="M3000 3676 c0 -10 9 -16 21 -16 24 0 21 23 -4 28 -10 2 -17 -3 -17
-12z"/>
<path d="M2975 3639 c-4 -6 -5 -12 -2 -15 2 -3 7 2 10 11 7 17 1 20 -8 4z"/>
<path d="M4816 5154 c-19 -19 -20 -25 -3 -48 19 -26 71 -18 75 12 7 46 -40 69
-72 36z"/>
<path d="M2285 4810 c-3 -5 -1 -10 4 -10 6 0 11 5 11 10 0 6 -2 10 -4 10 -3 0
-8 -4 -11 -10z"/>
<path d="M2240 4800 c0 -5 5 -10 10 -10 6 0 10 5 10 10 0 6 -4 10 -10 10 -5 0
-10 -4 -10 -10z"/>
<path d="M3674 4536 c-10 -8 -16 -18 -11 -22 4 -4 7 -2 7 4 0 7 7 12 15 12 8
0 15 5 15 10 0 13 -3 13 -26 -4z"/>
<path d="M3877 4523 c-4 -3 -7 -11 -7 -17 0 -6 5 -5 12 2 6 6 9 14 7 17 -3 3
-9 2 -12 -2z"/>
<path d="M3570 4493 c-8 -3 -27 -17 -42 -31 l-28 -26 0 -176 0 -177 57 -6
c111 -12 205 21 229 80 20 47 20 170 -1 219 -38 93 -136 146 -215 117z m97
-24 c72 -27 112 -100 113 -202 0 -130 -40 -167 -185 -167 l-75 0 0 163 c0 157
1 164 23 184 37 34 75 41 124 22z"/>
<path d="M3455 4420 c-14 -16 -15 -20 -4 -20 16 0 39 19 39 32 0 14 -16 9 -35
-12z"/>
<path d="M3461 4196 c-26 -28 -18 -35 13 -11 10 7 16 19 14 25 -2 6 -14 0 -27
-14z"/>
<path d="M2245 3546 c-22 -16 -14 -46 13 -46 29 0 48 26 32 45 -15 18 -21 19
-45 1z"/>
<path d="M4510 4159 l-53 -162 24 -19 c65 -52 163 -74 189 -43 18 22 -3 60
-41 76 -37 15 -37 28 -1 41 l28 11 -40 128 c-23 71 -44 129 -48 129 -3 0 -30
-73 -58 -161z m96 -9 l21 -69 -23 -16 c-34 -22 -30 -48 13 -76 21 -13 38 -28
38 -34 0 -16 -50 -17 -89 -1 l-35 15 14 35 c9 21 11 37 5 41 -5 3 -7 26 -3 53
7 53 -3 55 -12 2 -6 -37 -20 -58 -31 -48 -17 18 50 168 74 168 4 0 17 -32 28
-70z"/>
<path d="M4227 3573 c-12 -11 -7 -33 7 -33 12 0 26 20 26 36 0 7 -26 5 -33 -3z"/>
<path d="M4120 3530 c0 -5 5 -10 10 -10 6 0 10 5 10 10 0 6 -4 10 -10 10 -5 0
-10 -4 -10 -10z"/>
<path d="M4963 3434 c-3 -8 -1 -20 4 -25 7 -7 12 -2 15 15 6 28 -9 36 -19 10z"/>
<path d="M4976 3375 c4 -8 10 -15 15 -15 5 0 9 7 9 15 0 8 -7 15 -15 15 -9 0
-12 -6 -9 -15z"/>
<path d="M4995 3320 c4 -6 11 -8 16 -5 14 9 11 15 -7 15 -8 0 -12 -5 -9 -10z"/>
<path d="M5500 4581 c0 -6 5 -13 10 -16 6 -3 10 1 10 9 0 9 -4 16 -10 16 -5 0
-10 -4 -10 -9z"/>
<path d="M5442 4549 c-25 -10 -25 -31 2 -89 9 -19 14 -27 11 -17 -2 9 0 17 4
17 5 0 8 8 6 18 -1 9 0 12 2 5 7 -18 31 -23 37 -7 3 8 -1 17 -9 20 -8 4 -15
17 -15 29 0 30 -9 35 -38 24z"/>
<path d="M5486 4415 c-9 -26 -7 -32 5 -12 6 10 9 21 6 23 -2 3 -7 -2 -11 -11z"/>
<path d="M5206 4353 c-4 -9 -2 -21 4 -27 7 -7 10 -2 10 17 0 31 -5 34 -14 10z"/>
<path d="M5280 4205 c0 -5 5 -17 10 -25 5 -8 10 -10 10 -5 0 6 -5 17 -10 25
-5 8 -10 11 -10 5z"/>
<path d="M6360 4445 c-7 -8 -16 -13 -20 -10 -11 7 -22 -24 -13 -38 4 -6 6 -24
5 -39 -1 -15 2 -28 8 -28 5 0 10 16 10 35 0 20 7 47 16 61 19 28 14 43 -6 19z"/>
<path d="M6340 4280 c0 -11 4 -20 9 -20 17 0 19 15 5 28 -12 11 -14 9 -14 -8z"/>
<path d="M5045 3877 c-11 -9 -16 -20 -12 -31 8 -20 31 -21 47 0 11 12 11 18
-1 30 -13 12 -18 12 -34 1z"/>
<path d="M2686 3535 c-6 -17 9 -29 24 -20 14 9 12 22 -4 28 -8 3 -17 -1 -20
-8z"/>
<path d="M2760 3520 c0 -5 7 -10 15 -10 8 0 15 5 15 10 0 6 -7 10 -15 10 -8 0
-15 -4 -15 -10z"/>
<path d="M3670 3009 c0 -5 5 -7 10 -4 6 3 10 8 10 11 0 2 -4 4 -10 4 -5 0 -10
-5 -10 -11z"/>
<path d="M3330 3003 c0 -5 14 -16 32 -26 30 -17 31 -17 17 0 -23 30 -49 43
-49 26z"/>
<path d="M3562 2999 c2 -7 10 -15 17 -17 8 -3 12 1 9 9 -2 7 -10 15 -17 17 -8
3 -12 -1 -9 -9z"/>
<path d="M3700 2986 c0 -2 7 -9 15 -16 12 -10 15 -10 15 4 0 9 -7 16 -15 16
-8 0 -15 -2 -15 -4z"/>
<path d="M3625 2960 c3 -5 8 -10 11 -10 2 0 4 5 4 10 0 6 -5 10 -11 10 -5 0
-7 -4 -4 -10z"/>
<path d="M3196 2821 c-9 -14 2 -35 24 -49 23 -14 23 -14 9 27 -11 31 -23 39
-33 22z"/>
<path d="M3660 2800 c0 -5 5 -10 11 -10 5 0 7 5 4 10 -3 6 -8 10 -11 10 -2 0
-4 -4 -4 -10z"/>
<path d="M3320 2791 c0 -13 29 -35 37 -27 3 3 1 6 -5 6 -7 0 -12 7 -12 15 0 8
-4 15 -10 15 -5 0 -10 -4 -10 -9z"/>
<path d="M3260 2739 c0 -5 5 -7 10 -4 6 3 10 8 10 11 0 2 -4 4 -10 4 -5 0 -10
-5 -10 -11z"/>
<path d="M4205 2720 c-3 -5 -2 -10 4 -10 5 0 13 5 16 10 3 6 2 10 -4 10 -5 0
-13 -4 -16 -10z"/>
<path d="M3480 1972 c0 -14 8 -17 40 -17 l39 0 -36 17 c-20 10 -38 18 -40 18
-2 0 -3 -8 -3 -18z"/>
<path d="M3776 1914 c-8 -22 -8 -26 4 -19 6 4 17 1 25 -5 8 -6 19 -9 24 -6 6
4 26 0 46 -8 40 -17 43 -12 15 23 -16 18 -27 22 -50 18 -16 -4 -32 -2 -35 3
-9 15 -22 12 -29 -6z"/>
<path d="M5897 2870 c-15 -41 -37 -110 -51 -152 l-24 -77 22 -19 c38 -35 85
-53 129 -50 37 3 42 6 42 28 0 17 -10 31 -32 45 -39 24 -41 33 -8 41 14 3 25
11 24 18 0 6 -17 63 -38 126 l-37 115 -27 -75z"/>
<path d="M5651 2294 c0 -11 3 -14 6 -6 3 7 2 16 -1 19 -3 4 -6 -2 -5 -13z"/>
<path d="M5616 2254 c-16 -15 -13 -34 4 -34 5 0 14 9 20 19 13 26 -3 36 -24
15z"/>
<path d="M5520 2214 c0 -8 5 -12 10 -9 6 4 8 11 5 16 -9 14 -15 11 -15 -7z"/>
<path d="M5095 3140 c-3 -5 -1 -10 4 -10 6 0 11 5 11 10 0 6 -2 10 -4 10 -3 0
-8 -4 -11 -10z"/>
<path d="M4475 2970 c4 -6 11 -8 16 -5 14 9 11 15 -7 15 -8 0 -12 -5 -9 -10z"/>
<path d="M4490 2310 c0 -5 5 -10 10 -10 6 0 10 5 10 10 0 6 -4 10 -10 10 -5 0
-10 -4 -10 -10z"/>
<path d="M5270 2628 c0 -7 5 -20 10 -28 8 -12 10 -9 10 13 0 15 -4 27 -10 27
-5 0 -10 -6 -10 -12z"/>
<path d="M5265 2570 c3 -5 8 -10 11 -10 2 0 4 5 4 10 0 6 -5 10 -11 10 -5 0
-7 -4 -4 -10z"/>
<path d="M5360 2540 c0 -5 5 -10 10 -10 6 0 10 5 10 10 0 6 -4 10 -10 10 -5 0
-10 -4 -10 -10z"/>
<path d="M5256 2361 c-4 -5 -2 -12 3 -15 5 -4 12 -2 15 3 4 5 2 12 -3 15 -5 4
-12 2 -15 -3z"/>
<path d="M5212 2328 c6 -18 28 -21 28 -4 0 9 -7 16 -16 16 -9 0 -14 -5 -12
-12z"/>
<path d="M5370 2160 c0 -6 7 -10 15 -10 8 0 15 2 15 4 0 2 -7 6 -15 10 -8 3
-15 1 -15 -4z"/>
<path d="M6276 2132 c-2 -4 -1 -14 5 -22 5 -8 9 -13 10 -10 0 3 2 13 4 23 3
17 -10 24 -19 9z"/>
<path d="M6290 2081 c0 -6 5 -13 10 -16 6 -3 10 1 10 9 0 9 -4 16 -10 16 -5 0
-10 -4 -10 -9z"/>
<path d="M6310 2030 c0 -5 5 -10 11 -10 5 0 7 5 4 10 -3 6 -8 10 -11 10 -2 0
-4 -4 -4 -10z"/>
<path d="M4562 1915 c-11 -12 -10 -15 3 -15 8 0 15 7 15 15 0 18 -2 18 -18 0z"/>
<path d="M4518 1893 c7 -3 16 -2 19 1 4 3 -2 6 -13 5 -11 0 -14 -3 -6 -6z"/>
<path d="M6534 1728 c3 -13 6 -26 6 -30 0 -5 7 -8 15 -8 8 0 15 -8 15 -17 0
-13 3 -14 11 -6 9 9 8 16 -4 27 -9 9 -19 25 -22 36 -9 28 -29 25 -21 -2z"/>
<path d="M6680 1478 c0 -5 4 -8 8 -8 5 0 19 -9 32 -20 26 -22 40 -26 40 -9 0
5 5 7 11 4 6 -4 5 2 -2 13 -12 20 -89 37 -89 20z"/>
<path d="M6755 1422 c-10 -10 -5 -22 10 -22 7 0 18 -8 24 -17 11 -20 16 -17
25 13 6 18 2 22 -24 26 -16 3 -32 2 -35 0z"/>
<path d="M6975 1240 c-3 -5 -1 -10 4 -10 6 0 11 5 11 10 0 6 -2 10 -4 10 -3 0
-8 -4 -11 -10z"/>
<path d="M7016 1178 c28 -35 45 -41 51 -21 3 7 -7 17 -20 22 -14 6 -28 15 -32
20 -3 6 -11 11 -16 11 -6 0 2 -15 17 -32z"/>
</g>
</svg>
